HIERARCHY
ROOT Hips
{
	OFFSET 0.000000 0.000000 0.000000
	CHANNELS 6 Xposition Yposition Zposition Zrotation Yrotation Xrotation 
	JOINT LHipJoint
	{
		OFFSET 0.000000 0.000000 0.000000
		CHANNELS 3 Zrotation Yrotation Xrotation
		JOINT LeftUpLeg
		{
			OFFSET 8.178360 -10.767780 5.035740
			CHANNELS 3 Zrotation Yrotation Xrotation
			JOINT LeftLeg
			{
				OFFSET 14.688660 -40.356780 0.000000
				CHANNELS 3 Zrotation Yrotation Xrotation
				JOINT LeftFoot
				{
					OFFSET 15.373200 -42.237540 0.000000
					CHANNELS 3 Zrotation Yrotation Xrotation
					JOINT LeftToeBase
					{
						OFFSET 0.945840 -2.598660 13.935300
						CHANNELS 3 Zrotation Yrotation Xrotation
						End Site
						{
							OFFSET 0.000000 0.000000 0.000000
						}
					}
				}
			}
		}
	}
	JOINT RHipJoint
	{
		OFFSET 0.000000 0.000000 0.000000
		CHANNELS 3 Zrotation Yrotation Xrotation
		JOINT RightUpLeg
		{
			OFFSET -7.833120 -10.767780 5.035740
			CHANNELS 3 Zrotation Yrotation Xrotation
			JOINT RightLeg
			{
				OFFSET -15.255180 -41.913300 0.000000
				CHANNELS 3 Zrotation Yrotation Xrotation
				JOINT RightFoot
				{
					OFFSET -15.409560 -42.337380 0.000000
					CHANNELS 3 Zrotation Yrotation Xrotation
					JOINT RightToeBase
					{
						OFFSET -0.988380 -2.715540 14.178900
						CHANNELS 3 Zrotation Yrotation Xrotation
						End Site
						{
							OFFSET 0.000000 0.000000 0.000000
						}
					}
				}
			}
		}
	}
	JOINT LowerBack
	{
		OFFSET 0.000000 0.000000 0.000000
		CHANNELS 3 Zrotation Yrotation Xrotation
		JOINT Spine
		{
			OFFSET 0.169620 12.213540 -1.160280
			CHANNELS 3 Zrotation Yrotation Xrotation
			JOINT Spine1
			{
				OFFSET 0.340320 12.293100 -0.256500
				CHANNELS 3 Zrotation Yrotation Xrotation
				JOINT Neck
				{
					OFFSET 0.000000 0.000000 0.000000
					CHANNELS 3 Zrotation Yrotation Xrotation
					JOINT Neck1
					{
						OFFSET -0.325020 10.477440 1.032120
						CHANNELS 3 Zrotation Yrotation Xrotation
						JOINT Head
						{
							OFFSET 0.624420 10.568160 -0.743820
							CHANNELS 3 Zrotation Yrotation Xrotation
							End Site
							{
								OFFSET 0.000000 0.000000 0.000000
							}
						}
					}
				}
				JOINT LeftShoulder
				{
					OFFSET 0.000000 0.000000 0.000000
					CHANNELS 3 Zrotation Yrotation Xrotation
					JOINT LeftArm
					{
						OFFSET 20.174460 7.205340 -1.867260
						CHANNELS 3 Zrotation Yrotation Xrotation
						JOINT LeftForeArm
						{
							OFFSET 29.898000 -0.000000 -0.000000
							CHANNELS 3 Zrotation Yrotation Xrotation
							JOINT LeftHand
							{
								OFFSET 20.901360 -0.000000 -0.000000
								CHANNELS 3 Zrotation Yrotation Xrotation
								JOINT LeftFingerBase
								{
									OFFSET 0.000000 0.000000 0.000000
									CHANNELS 3 Zrotation Yrotation Xrotation
									JOINT LeftHandIndex1
									{
										OFFSET 4.291560 -0.000000 -0.000000
										CHANNELS 3 Zrotation Yrotation Xrotation
										End Site
										{
											OFFSET 0.000000 0.000000 0.000000
										}
									}
								}
								JOINT LThumb
								{
									OFFSET 0.000000 0.000000 0.000000
									CHANNELS 3 Zrotation Yrotation Xrotation
									End Site
									{
										OFFSET 0.000000 0.000000 0.000000
									}
								}
							}
						}
					}
				}
				JOINT RightShoulder
				{
					OFFSET 0.000000 0.000000 0.000000
					CHANNELS 3 Zrotation Yrotation Xrotation
					JOINT RightArm
					{
						OFFSET -18.819600 8.244300 -2.427900
						CHANNELS 3 Zrotation Yrotation Xrotation
						JOINT RightForeArm
						{
							OFFSET -31.451400 -0.000000 -0.000000
							CHANNELS 3 Zrotation Yrotation Xrotation
							JOINT RightHand
							{
								OFFSET -20.665020 -0.000000 -0.000000
								CHANNELS 3 Zrotation Yrotation Xrotation
								JOINT RightFingerBase
								{
									OFFSET 0.000000 0.000000 0.000000
									CHANNELS 3 Zrotation Yrotation Xrotation
									JOINT RightHandIndex1
									{
										OFFSET -3.735180 -0.000000 -0.000000
										CHANNELS 3 Zrotation Yrotation Xrotation
										End Site
										{
											OFFSET 0.000000 0.000000 0.000000
										}
									}
								}
								JOINT RThumb
								{
									OFFSET 0.000000 0.000000 0.000000
									CHANNELS 3 Zrotation Yrotation Xrotation
									End Site
									{
										OFFSET 0.000000 0.000000 0.000000
									}
								}
							}
						}
					}
				}
			}
		}
	}
}
MOTION
Frames:	7
Frame Time:	0.0333333
-85.309998 107.199888 87.317850 20.220667 -87.925330 -15.943992 -4.226992 1.273639 2.677548 -17.372684 -5.932063 -8.864164 -0.326675 6.945716 20.774657 1.148344 -6.825789 -2.925327 0.101000 2.049300 5.641800 1.053636 -0.920624 0.912126 21.066775 7.140739 -10.203282 -2.285499 -10.009763 30.409424 -1.064064 2.833044 -6.702124 -0.472800 -4.410000 12.233200 -0.426194 1.417018 1.012792 1.616963 1.794384 0.099532 0.421474 0.935853 -1.906215 -7.137944 3.684513 -17.392590 3.987682 5.871547 20.095226 3.990200 1.745600 13.295800 -6.250593 -1.137088 -1.680058 -84.251749 4.724842 21.052416 15.673504 -22.426008 -3.776196 -1.091265 -2.499722 5.471335 16.214127 22.417973 7.400300 -7.125000 0.000000 0.000000 -13.449600 55.481100 -3.506100 5.601959 0.808776 -1.399525 85.346078 -3.713851 14.566031 -14.328662 21.387971 -2.922565 0.342266 -0.185310 10.512181 -13.940981 7.689196 -1.982900 7.125000 0.000000 0.000000 9.090700 -21.967800 5.092800 
-85.562562 107.166738 87.370296 19.002165 -87.659757 -14.694991 -4.223040 1.255493 2.701113 -17.412941 -5.403061 -9.003615 -0.293571 6.957947 20.843726 1.263033 -7.943745 -2.506839 0.165500 2.620600 7.224300 1.046240 -0.942592 0.922755 21.085164 7.343124 -9.886809 -2.263542 -9.987976 30.328838 -0.949625 2.189335 -7.014466 -0.440400 -4.258400 11.804900 -0.325090 1.477119 0.897274 1.632099 1.874790 0.010393 0.374880 0.976811 -1.995081 -7.329051 3.671525 -18.496038 3.466641 6.137939 19.018414 3.864200 1.846200 13.089900 -6.235005 -1.163765 -1.698632 -84.271782 4.662856 21.973320 15.685658 -22.435202 -3.785606 -1.146017 -2.488700 5.168428 16.965134 22.302876 7.737500 -7.125000 0.000000 0.000000 -12.544000 55.515800 -3.275000 5.602298 0.800558 -1.426874 85.228377 -3.741337 15.095598 -14.459225 21.563190 -2.972600 0.364565 -0.173800 9.875878 -14.390545 7.479140 -1.992700 7.125000 0.000000 0.000000 8.760100 -22.175300 4.861300 
-85.847076 107.122134 87.410682 17.135993 -87.449815 -12.843643 -4.241791 1.260031 2.707376 -17.422099 -5.685538 -8.761189 -0.284329 6.982438 20.923119 1.250486 -7.735161 -2.791412 0.147700 2.476400 6.824200 1.031603 -0.972518 0.941502 21.125932 7.330409 -9.662194 -2.246264 -9.966606 30.250749 -0.919671 1.997758 -7.192550 -0.439700 -4.255000 11.795100 -0.226181 1.452246 0.657239 1.565736 1.851100 -0.061258 0.169366 0.963039 -1.967297 -7.163574 3.718519 -19.395735 3.184537 6.287457 18.134789 3.754500 1.956100 12.927600 -6.217624 -1.179334 -1.709493 -84.083844 4.644464 21.970887 15.752023 -22.536871 -3.825749 -1.094670 -2.462357 5.365998 16.387022 21.989286 7.354700 -7.125000 0.000000 0.000000 -13.031800 55.055000 -3.258600 5.593761 0.793026 -1.446414 85.311025 -3.647918 15.466123 -14.604623 21.788923 -3.041036 0.342844 -0.178260 9.739717 -13.904754 7.804515 -2.005900 7.125000 0.000000 0.000000 9.114000 -21.854300 5.130100 
-86.064072 107.073912 87.428160 14.470910 -87.346184 -10.220500 -4.253040 1.249443 2.721256 -17.316884 -5.687549 -8.636495 -0.260790 7.015191 21.038059 1.280275 -7.892433 -2.967135 0.143100 2.437700 6.717000 1.014413 -1.012600 0.961753 21.295201 7.408434 -9.402646 -2.236824 -9.958345 30.211047 -0.928503 1.951471 -7.532704 -0.538800 -4.702900 13.063200 -0.156966 1.547818 0.650907 1.570505 1.982873 -0.177630 0.103582 1.025480 -2.184237 -7.171749 3.665475 -20.108487 2.852482 6.332213 17.541947 3.639400 1.969400 12.861700 -6.199862 -1.204438 -1.728496 -84.175813 4.671340 22.154512 15.799625 -22.597015 -3.844516 -1.151784 -2.496350 4.674446 17.283890 22.295312 7.893000 -7.125000 0.000000 0.000000 -12.183100 55.576000 -3.196600 5.590384 0.788426 -1.469346 85.171341 -3.632989 16.122029 -14.754201 21.987556 -3.100354 0.361492 -0.168836 9.114027 -14.293147 7.661964 -2.025800 7.125000 0.000000 0.000000 8.827500 -21.992200 4.936900 
-86.299158 107.051604 87.455286 12.819333 -87.045472 -8.621618 -4.263372 1.256066 2.720324 -17.295962 -6.085671 -8.378042 -0.237036 7.065859 21.198370 1.286113 -7.904784 -3.112474 0.203400 2.904100 8.012000 0.998719 -1.034507 0.990727 21.280941 6.618541 -9.446069 -2.222612 -9.924036 30.100188 -1.025292 2.464850 -7.345526 -0.505500 -4.557700 12.651200 0.052036 1.526955 0.483736 1.481652 1.972693 -0.253498 -0.202716 1.015969 -2.198232 -7.151790 3.547489 -20.833656 2.707922 6.248264 17.095857 3.589700 1.946200 12.856800 -6.198524 -1.213583 -1.741223 -83.959824 4.624651 22.115006 15.793698 -22.601962 -3.833225 -1.291192 -2.494143 5.193245 18.674093 22.726823 8.727200 -7.125000 0.000000 0.000000 -10.829400 56.325900 -3.032700 5.573364 0.795221 -1.482475 85.350206 -3.457075 15.794164 -14.873510 22.179250 -3.158327 0.335731 -0.180227 9.518218 -13.806901 8.019607 -2.045300 7.125000 0.000000 0.000000 9.181100 -21.635100 5.215100 
-86.519172 107.045580 87.513756 10.777387 -86.967319 -6.600905 -4.272721 1.251382 2.713116 -17.245084 -6.422173 -8.173154 -0.214358 7.119525 21.365810 1.274158 -7.695837 -3.380644 0.204000 2.908000 8.022800 0.988792 -1.069664 1.012932 21.382616 6.530742 -9.222502 -2.190795 -9.879569 29.945954 -0.991971 2.301523 -7.359871 -0.391300 -4.016700 11.123700 0.130046 1.552867 0.234681 1.532415 2.008511 -0.303727 -0.161021 1.024743 -2.158300 -7.495587 3.347352 -21.195137 2.656156 6.159687 16.580342 3.622200 1.899900 12.718800 -6.204335 -1.198376 -1.753951 -84.207465 4.653294 22.392482 15.788228 -22.572022 -3.843046 -1.066884 -2.528879 4.058082 16.524443 22.353357 7.541600 -7.125000 0.000000 0.000000 -13.062700 55.489500 -3.405300 5.566019 0.804297 -1.484539 85.014578 -3.272730 16.530834 -15.017827 22.380299 -3.219068 0.347247 -0.169678 8.616297 -13.952170 7.982854 -2.057300 7.125000 0.000000 0.000000 9.072300 -21.673200 5.143900 
-86.705430 106.984698 87.516168 8.283527 -86.617157 -4.233801 -4.276346 1.243181 2.720805 -17.168283 -6.449931 -8.036444 -0.189155 7.171261 21.527965 1.266337 -7.449154 -3.760114 0.113500 2.172500 5.982700 0.977499 -1.109186 1.035935 21.561167 6.435234 -8.926524 -2.169420 -9.855761 29.854564 -0.934791 1.947065 -7.657690 -0.362600 -3.868300 10.706500 0.225642 1.484066 0.174787 1.500797 1.927008 -0.362056 -0.311566 0.979020 -2.220237 -7.460871 3.188604 -21.543412 2.475098 5.979272 16.293380 3.521500 1.820600 12.702000 -6.216249 -1.203695 -1.762739 -84.323794 4.727606 22.152751 15.675857 -22.407462 -3.781697 -1.105278 -2.492947 4.713894 16.673821 22.130267 7.545300 -7.125000 0.000000 0.000000 -12.777800 55.277200 -3.263000 5.560786 0.799481 -1.491757 85.035773 -3.007971 16.519991 -15.121436 22.524836 -3.263267 0.347307 -0.171396 8.552497 -13.992285 8.067654 -2.085300 7.125000 0.000000 0.000000 9.040000 -21.583100 5.143800 
